<svg xmlns="http://www.w3.org/2000/svg" xmlns:xlink="http://www.w3.org/1999/xlink" width="1080" zoomAndPan="magnify" viewBox="0 0 810 809.999993" height="1080" preserveAspectRatio="xMidYMid meet" version="1.0"><defs><g/><clipPath id="693bf77bb4"><rect x="0" width="486" y="0" height="52"/></clipPath></defs><path fill="#2e2d2d" d="M 311.667969 272.058594 C 315.445312 265.519531 314.960938 257.496094 314.492188 249.726562 C 314.242188 245.550781 313.773438 237.777344 315.332031 236.214844 C 316.890625 234.65625 324.652344 235.128906 328.828125 235.378906 C 336.582031 235.847656 344.601562 236.332031 351.128906 232.550781 C 357.871094 228.648438 361.554688 221.304688 365.117188 214.207031 C 366.753906 210.949219 368.296875 207.878906 369.902344 205.648438 C 371.382812 203.59375 372.164062 203.335938 372.171875 203.335938 C 372.203125 203.328125 373.03125 203.125 375.457031 204.222656 C 377.992188 205.359375 380.886719 207.277344 383.945312 209.296875 C 390.519531 213.640625 397.316406 218.132812 405 218.132812 C 412.683594 218.132812 419.480469 213.640625 426.054688 209.296875 C 429.113281 207.277344 432.007812 205.363281 434.542969 204.222656 C 436.96875 203.125 437.796875 203.328125 437.828125 203.335938 C 437.835938 203.339844 438.617188 203.59375 440.101562 205.652344 C 441.703125 207.878906 443.246094 210.949219 444.878906 214.207031 C 448.445312 221.304688 452.128906 228.648438 458.871094 232.550781 C 465.398438 236.332031 473.417969 235.84375 481.171875 235.378906 C 485.347656 235.128906 493.109375 234.65625 494.667969 236.214844 C 496.226562 237.777344 495.757812 245.550781 495.507812 249.726562 C 495.039062 257.496094 494.554688 265.519531 498.328125 272.058594 C 501.574219 277.683594 507.203125 281.175781 513.09375 284.253906 L 542.605469 284.253906 C 538.816406 277.628906 531.28125 273.839844 524.5 270.425781 C 520.382812 268.355469 514.746094 265.519531 513.460938 263.296875 C 512.320312 261.320312 512.699219 254.976562 512.957031 250.78125 C 513.511719 241.492188 514.144531 230.964844 507.027344 223.839844 C 499.910156 216.714844 489.394531 217.347656 480.121094 217.90625 C 475.925781 218.160156 469.597656 218.539062 467.621094 217.398438 C 465.398438 216.117188 462.566406 210.46875 460.5 206.347656 C 456.40625 198.191406 451.765625 188.945312 442.335938 186.425781 C 432.789062 183.875 424.09375 189.621094 416.421875 194.6875 C 412.632812 197.199219 407.4375 200.628906 405 200.628906 C 402.5625 200.628906 397.367188 197.199219 393.578125 194.6875 C 385.90625 189.621094 377.207031 183.875 367.664062 186.425781 C 358.234375 188.945312 353.59375 198.191406 349.5 206.347656 C 347.433594 210.46875 344.597656 216.117188 342.378906 217.398438 C 340.402344 218.542969 334.066406 218.160156 329.878906 217.90625 C 320.605469 217.347656 310.089844 216.714844 302.972656 223.839844 C 295.851562 230.964844 296.484375 241.492188 297.046875 250.78125 C 297.300781 254.976562 297.679688 261.320312 296.535156 263.296875 C 295.253906 265.519531 289.613281 268.355469 285.5 270.425781 C 278.71875 273.839844 271.179688 277.628906 267.394531 284.253906 L 296.90625 284.253906 C 302.792969 281.175781 308.421875 277.683594 311.667969 272.058594 " fill-opacity="1" fill-rule="nonzero"/><path fill="#2e2d2d" d="M 498.328125 379.929688 C 494.550781 386.46875 495.039062 394.496094 495.507812 402.261719 C 495.617188 404.121094 495.773438 406.691406 495.773438 409.109375 C 495.773438 412.128906 495.535156 414.90625 494.667969 415.773438 C 493.109375 417.332031 485.347656 416.863281 481.171875 416.613281 C 473.417969 416.144531 465.398438 415.660156 458.871094 419.441406 C 452.128906 423.34375 448.445312 430.683594 444.878906 437.78125 C 443.246094 441.039062 441.703125 444.113281 440.101562 446.339844 C 438.617188 448.398438 437.835938 448.652344 437.828125 448.65625 C 437.796875 448.664062 436.96875 448.863281 434.542969 447.769531 C 432.007812 446.625 429.113281 444.714844 426.054688 442.695312 C 419.480469 438.351562 412.683594 433.859375 405 433.859375 C 397.316406 433.859375 390.519531 438.351562 383.945312 442.695312 C 380.886719 444.714844 377.992188 446.625 375.457031 447.769531 C 373.03125 448.863281 372.203125 448.664062 372.171875 448.65625 C 372.164062 448.652344 371.382812 448.398438 369.902344 446.339844 C 368.296875 444.113281 366.753906 441.039062 365.117188 437.78125 C 361.554688 430.683594 357.871094 423.34375 351.128906 419.441406 C 344.601562 415.660156 336.582031 416.144531 328.824219 416.613281 C 324.652344 416.863281 316.890625 417.332031 315.332031 415.773438 C 313.773438 414.214844 314.242188 406.441406 314.492188 402.261719 C 314.960938 394.496094 315.445312 386.46875 311.667969 379.929688 C 308.421875 374.308594 302.789062 370.808594 296.898438 367.738281 L 267.394531 367.738281 C 271.179688 374.363281 278.71875 378.148438 285.5 381.566406 C 289.613281 383.636719 295.253906 386.472656 296.535156 388.691406 C 297.679688 390.671875 297.300781 397.011719 297.046875 401.210938 C 296.484375 410.5 295.851562 421.019531 302.972656 428.148438 C 310.089844 435.277344 320.605469 434.640625 329.878906 434.082031 C 334.066406 433.828125 340.402344 433.449219 342.378906 434.59375 C 344.597656 435.875 347.433594 441.523438 349.5 445.644531 C 353.59375 453.796875 358.234375 463.046875 367.660156 465.566406 C 377.207031 468.117188 385.90625 462.371094 393.578125 457.300781 C 397.367188 454.792969 402.5625 451.359375 405 451.359375 C 407.4375 451.359375 412.632812 454.792969 416.421875 457.300781 C 422.796875 461.511719 429.878906 466.191406 437.5625 466.191406 C 439.128906 466.191406 440.722656 465.996094 442.335938 465.566406 C 451.765625 463.046875 456.40625 453.796875 460.5 445.644531 C 462.566406 441.523438 465.398438 435.875 467.621094 434.59375 C 469.597656 433.449219 475.925781 433.828125 480.121094 434.082031 C 482.691406 434.238281 485.359375 434.398438 488.019531 434.398438 C 494.964844 434.398438 501.882812 433.300781 507.027344 428.148438 C 514.148438 421.023438 513.511719 410.5 512.957031 401.210938 C 512.699219 397.011719 512.320312 390.671875 513.460938 388.691406 C 514.746094 386.472656 520.382812 383.636719 524.5 381.566406 C 531.28125 378.148438 538.816406 374.363281 542.605469 367.738281 L 513.101562 367.738281 C 507.210938 370.808594 501.578125 374.308594 498.328125 379.929688 " fill-opacity="1" fill-rule="nonzero"/><path fill="#2e2d2d" d="M 267.574219 341.050781 C 264.726562 341.050781 262.128906 340.402344 259.859375 339.125 C 257.59375 337.847656 255.785156 336.039062 254.492188 333.75 C 253.191406 331.457031 252.535156 328.847656 252.535156 325.992188 C 252.535156 323.140625 253.191406 320.535156 254.492188 318.238281 C 255.785156 315.949219 257.59375 314.144531 259.859375 312.867188 C 262.128906 311.589844 264.726562 310.9375 267.574219 310.9375 C 269.070312 310.9375 270.5 311.113281 271.847656 311.472656 C 273.0625 311.792969 274.214844 312.261719 275.289062 312.867188 C 277.554688 314.144531 279.359375 315.949219 280.65625 318.238281 C 281.953125 320.535156 282.609375 323.144531 282.609375 325.992188 C 282.609375 328.84375 281.953125 331.453125 280.65625 333.75 C 279.359375 336.039062 277.554688 337.847656 275.289062 339.125 C 274.214844 339.730469 273.0625 340.199219 271.847656 340.515625 C 270.5 340.871094 269.070312 341.050781 267.574219 341.050781 Z M 280.082031 346.394531 C 283.789062 344.386719 286.746094 341.570312 288.859375 338.03125 C 290.972656 334.488281 292.042969 330.4375 292.042969 325.992188 C 292.042969 321.554688 290.972656 317.503906 288.859375 313.957031 C 286.738281 310.414062 283.789062 307.601562 280.082031 305.589844 C 276.378906 303.589844 272.171875 302.570312 267.574219 302.570312 C 267.378906 302.570312 267.1875 302.570312 267 302.578125 C 262.625 302.660156 258.609375 303.671875 255.066406 305.589844 C 251.355469 307.601562 248.402344 310.425781 246.289062 313.988281 C 244.171875 317.554688 243.101562 321.59375 243.101562 325.992188 C 243.101562 330.394531 244.171875 334.433594 246.289062 337.996094 C 248.402344 341.5625 251.355469 344.386719 255.066406 346.394531 C 258.609375 348.320312 262.625 349.332031 267 349.410156 C 267.1875 349.417969 267.378906 349.417969 267.574219 349.417969 C 272.171875 349.417969 276.378906 348.402344 280.082031 346.394531 " fill-opacity="1" fill-rule="nonzero"/><path fill="#2e2d2d" d="M 328.527344 319.582031 C 328.527344 322.265625 327.679688 324.273438 325.9375 325.71875 C 324.191406 327.167969 321.5625 327.910156 318.117188 327.910156 L 309.042969 327.910156 L 309.042969 311.320312 L 318.117188 311.320312 C 321.5625 311.320312 324.191406 312.042969 325.941406 313.476562 C 327.679688 314.898438 328.527344 316.898438 328.527344 319.582031 Z M 313.640625 303.207031 L 299.671875 303.207031 L 299.671875 348.78125 L 309.042969 348.78125 L 309.042969 335.828125 L 318.496094 335.828125 C 319.089844 335.828125 319.566406 335.816406 319.933594 335.792969 L 328.988281 348.78125 L 339.238281 348.78125 L 328.8125 333.867188 C 331.632812 332.644531 333.855469 330.855469 335.421875 328.53125 C 337.105469 326.035156 337.960938 323.023438 337.960938 319.582031 C 337.960938 316.226562 337.164062 313.28125 335.589844 310.832031 C 334.417969 309.011719 332.859375 307.492188 330.925781 306.296875 C 330.253906 305.878906 329.539062 305.5 328.777344 305.160156 C 325.867188 303.863281 322.40625 303.207031 318.496094 303.207031 L 313.640625 303.207031 " fill-opacity="1" fill-rule="nonzero"/><path fill="#2e2d2d" d="M 346.03125 348.78125 L 355.398438 348.78125 L 355.398438 303.207031 L 346.03125 303.207031 L 346.03125 348.78125 " fill-opacity="1" fill-rule="nonzero"/><path fill="#2e2d2d" d="M 424.589844 348.78125 L 424.589844 303.207031 L 415.21875 303.207031 L 415.21875 348.78125 L 424.589844 348.78125 " fill-opacity="1" fill-rule="nonzero"/><path fill="#2e2d2d" d="M 466.710938 332.28125 L 443.066406 303.207031 L 435.449219 303.207031 L 435.449219 348.78125 L 444.753906 348.78125 L 444.753906 319.703125 L 468.402344 348.78125 L 476.019531 348.78125 L 476.019531 303.207031 L 466.710938 303.207031 L 466.710938 332.28125 " fill-opacity="1" fill-rule="nonzero"/><path fill="#2e2d2d" d="M 499.101562 327.417969 L 505.074219 313.453125 L 512.589844 330.894531 L 497.617188 330.894531 Z M 494.347656 338.496094 L 515.804688 338.496094 L 520.242188 348.78125 L 530.109375 348.78125 L 515.199219 315.714844 L 509.558594 303.207031 L 500.710938 303.207031 L 497.742188 309.816406 L 480.230469 348.78125 L 489.96875 348.78125 L 494.347656 338.496094 " fill-opacity="1" fill-rule="nonzero"/><path fill="#2e2d2d" d="M 543.6875 340.667969 L 543.6875 303.207031 L 534.316406 303.207031 L 534.316406 348.78125 L 566.898438 348.78125 L 566.898438 340.667969 L 543.6875 340.667969 " fill-opacity="1" fill-rule="nonzero"/><path fill="#2e2d2d" d="M 379.992188 312.839844 C 382.335938 311.574219 385.054688 310.9375 388.066406 310.9375 C 392.664062 310.9375 396.648438 312.585938 399.914062 315.851562 L 400.304688 316.242188 L 406.285156 310.402344 L 405.933594 310 C 403.808594 307.574219 401.15625 305.710938 398.046875 304.457031 C 394.949219 303.203125 391.46875 302.570312 387.6875 302.570312 C 383.046875 302.570312 378.800781 303.589844 375.082031 305.589844 C 371.359375 307.601562 368.390625 310.414062 366.273438 313.957031 C 364.160156 317.503906 363.085938 321.550781 363.085938 325.992188 C 363.085938 330.433594 364.160156 334.480469 366.273438 338.03125 C 368.390625 341.574219 371.34375 344.386719 375.054688 346.398438 C 378.765625 348.402344 382.96875 349.417969 387.5625 349.417969 C 390.804688 349.417969 394.019531 348.917969 397.117188 347.929688 C 400.207031 346.945312 402.953125 345.5 405.289062 343.644531 L 405.5 343.476562 L 405.5 333.351562 L 405.53125 333.351562 L 405.53125 324.417969 L 384.578125 324.417969 L 384.578125 333.351562 L 396.574219 333.351562 L 396.574219 338.996094 C 394.113281 340.359375 391.230469 341.050781 388 341.050781 C 385.023438 341.050781 382.332031 340.386719 380 339.089844 C 377.664062 337.789062 375.816406 335.980469 374.503906 333.710938 C 373.191406 331.445312 372.523438 328.847656 372.523438 325.992188 C 372.523438 323.058594 373.191406 320.417969 374.503906 318.152344 C 375.816406 315.886719 377.664062 314.09375 379.992188 312.839844 " fill-opacity="1" fill-rule="nonzero"/><path fill="#2e2d2d" d="M 445.4375 370.734375 L 447.628906 377.492188 C 447.828125 378.105469 448.402344 378.519531 449.046875 378.519531 L 456.144531 378.519531 C 457.589844 378.519531 458.1875 380.371094 457.019531 381.222656 L 451.28125 385.398438 C 450.757812 385.777344 450.539062 386.453125 450.738281 387.066406 L 452.929688 393.824219 C 453.378906 395.199219 451.804688 396.34375 450.636719 395.492188 L 444.894531 391.316406 C 444.375 390.9375 443.664062 390.9375 443.144531 391.316406 L 437.402344 395.492188 C 436.234375 396.34375 434.660156 395.199219 435.109375 393.824219 L 437.300781 387.066406 C 437.5 386.453125 437.28125 385.777344 436.757812 385.398438 L 431.019531 381.222656 C 429.851562 380.371094 430.449219 378.519531 431.894531 378.519531 L 438.992188 378.519531 C 439.636719 378.519531 440.210938 378.105469 440.410156 377.492188 L 442.601562 370.734375 C 443.046875 369.359375 444.992188 369.359375 445.4375 370.734375 " fill-opacity="1" fill-rule="nonzero"/><path fill="#2e2d2d" d="M 407.042969 367.824219 L 410.203125 377.5625 C 410.488281 378.449219 411.3125 379.046875 412.242188 379.046875 L 422.46875 379.046875 C 424.546875 379.046875 425.414062 381.714844 423.730469 382.9375 L 415.457031 388.953125 C 414.707031 389.503906 414.390625 390.472656 414.679688 391.359375 L 417.839844 401.097656 C 418.480469 403.078125 416.21875 404.722656 414.535156 403.5 L 406.261719 397.484375 C 405.507812 396.9375 404.492188 396.9375 403.738281 397.484375 L 395.464844 403.5 C 393.78125 404.722656 391.519531 403.078125 392.160156 401.097656 L 395.320312 391.359375 C 395.609375 390.472656 395.292969 389.503906 394.539062 388.953125 L 386.269531 382.9375 C 384.585938 381.714844 385.449219 379.046875 387.53125 379.046875 L 397.757812 379.046875 C 398.6875 379.046875 399.511719 378.449219 399.796875 377.5625 L 402.957031 367.824219 C 403.601562 365.84375 406.398438 365.84375 407.042969 367.824219 " fill-opacity="1" fill-rule="nonzero"/><path fill="#2e2d2d" d="M 367.398438 375.507812 L 369.589844 382.265625 C 369.789062 382.878906 370.363281 383.296875 371.007812 383.296875 L 378.105469 383.296875 C 379.550781 383.296875 380.148438 385.148438 378.980469 385.996094 L 373.238281 390.171875 C 372.71875 390.550781 372.5 391.226562 372.699219 391.84375 L 374.890625 398.597656 C 375.335938 399.972656 373.765625 401.117188 372.597656 400.269531 L 366.855469 396.089844 C 366.335938 395.710938 365.628906 395.710938 365.105469 396.089844 L 359.363281 400.269531 C 358.195312 401.117188 356.625 399.972656 357.070312 398.597656 L 359.261719 391.84375 C 359.460938 391.226562 359.242188 390.550781 358.722656 390.171875 L 352.980469 385.996094 C 351.8125 385.148438 352.414062 383.296875 353.855469 383.296875 L 360.953125 383.296875 C 361.597656 383.296875 362.171875 382.878906 362.371094 382.265625 L 364.5625 375.507812 C 365.007812 374.132812 366.953125 374.132812 367.398438 375.507812 " fill-opacity="1" fill-rule="nonzero"/><path fill="#2e2d2d" d="M 341.855469 285.199219 L 341.855469 252.1875 L 333.601562 252.1875 L 333.601562 245.339844 L 349.871094 245.339844 L 349.871094 285.199219 L 341.855469 285.199219 " fill-opacity="1" fill-rule="nonzero"/><path fill="#2e2d2d" d="M 373.535156 251.851562 C 370.890625 251.851562 368.847656 252.933594 367.292969 255.15625 C 365.726562 257.386719 364.933594 260.792969 364.933594 265.269531 C 364.933594 269.75 365.726562 273.152344 367.292969 275.386719 C 368.847656 277.605469 370.890625 278.683594 373.535156 278.683594 C 376.21875 278.683594 378.277344 277.605469 379.835938 275.386719 C 381.398438 273.152344 382.191406 269.75 382.191406 265.269531 C 382.191406 260.792969 381.398438 257.386719 379.835938 255.15625 C 378.277344 252.933594 376.21875 251.851562 373.535156 251.851562 Z M 373.535156 285.761719 C 370.351562 285.761719 367.464844 284.941406 364.960938 283.324219 C 362.457031 281.710938 360.457031 279.328125 359.019531 276.238281 C 357.589844 273.167969 356.863281 269.480469 356.863281 265.269531 C 356.863281 261.0625 357.589844 257.371094 359.019531 254.300781 C 360.457031 251.214844 362.457031 248.832031 364.960938 247.214844 C 367.46875 245.597656 370.351562 244.78125 373.535156 244.78125 C 376.71875 244.78125 379.609375 245.597656 382.136719 247.214844 C 384.660156 248.828125 386.667969 251.214844 388.105469 254.300781 C 389.535156 257.375 390.261719 261.0625 390.261719 265.269531 C 390.261719 269.476562 389.535156 273.167969 388.105469 276.238281 C 386.667969 279.328125 384.660156 281.710938 382.136719 283.324219 C 379.613281 284.941406 376.71875 285.761719 373.535156 285.761719 " fill-opacity="1" fill-rule="nonzero"/><path fill="#2e2d2d" d="M 411.082031 251.851562 C 408.4375 251.851562 406.394531 252.933594 404.835938 255.15625 C 403.273438 257.386719 402.480469 260.792969 402.480469 265.269531 C 402.480469 269.75 403.273438 273.152344 404.835938 275.386719 C 406.394531 277.605469 408.4375 278.683594 411.082031 278.683594 C 413.765625 278.683594 415.824219 277.605469 417.382812 275.386719 C 418.945312 273.152344 419.738281 269.75 419.738281 265.269531 C 419.738281 260.792969 418.945312 257.386719 417.382812 255.15625 C 415.824219 252.933594 413.765625 251.851562 411.082031 251.851562 Z M 411.082031 285.761719 C 407.894531 285.761719 405.011719 284.941406 402.507812 283.324219 C 400 281.710938 398.003906 279.328125 396.566406 276.238281 C 395.136719 273.167969 394.410156 269.480469 394.410156 265.269531 C 394.410156 261.0625 395.136719 257.371094 396.566406 254.300781 C 398.003906 251.214844 400 248.832031 402.507812 247.214844 C 405.011719 245.597656 407.898438 244.78125 411.082031 244.78125 C 414.265625 244.78125 417.15625 245.597656 419.683594 247.214844 C 422.203125 248.828125 424.214844 251.214844 425.652344 254.300781 C 427.082031 257.375 427.808594 261.0625 427.808594 265.269531 C 427.808594 269.476562 427.082031 273.167969 425.652344 276.238281 C 424.214844 279.328125 422.203125 281.710938 419.683594 283.324219 C 417.160156 284.941406 414.265625 285.761719 411.082031 285.761719 " fill-opacity="1" fill-rule="nonzero"/><path fill="#2e2d2d" d="M 441.039062 249.621094 C 439.707031 249.621094 438.664062 250.160156 437.859375 251.277344 C 437.039062 252.414062 436.621094 254.023438 436.621094 256.054688 C 436.621094 258.085938 437.039062 259.691406 437.859375 260.828125 C 438.664062 261.945312 439.707031 262.488281 441.039062 262.488281 C 442.449219 262.488281 443.503906 261.957031 444.269531 260.863281 C 445.058594 259.738281 445.457031 258.121094 445.457031 256.054688 C 445.457031 253.984375 445.058594 252.367188 444.269531 251.246094 C 443.503906 250.152344 442.445312 249.621094 441.039062 249.621094 Z M 441.039062 267.160156 C 438.144531 267.160156 435.777344 266.117188 434 264.066406 C 432.238281 262.03125 431.34375 259.335938 431.34375 256.054688 C 431.34375 252.769531 432.238281 250.074219 434 248.039062 C 435.78125 245.988281 438.148438 244.949219 441.039062 244.949219 C 443.929688 244.949219 446.304688 245.976562 448.101562 248.011719 C 449.886719 250.027344 450.792969 252.734375 450.792969 256.054688 C 450.792969 259.375 449.886719 262.078125 448.101562 264.097656 C 446.304688 266.128906 443.929688 267.160156 441.039062 267.160156 Z M 437.082031 285.199219 L 464.269531 245.339844 L 470.660156 245.339844 L 443.472656 285.199219 Z M 466.648438 268.050781 C 465.277344 268.050781 464.226562 268.585938 463.441406 269.683594 C 462.636719 270.800781 462.230469 272.417969 462.230469 274.488281 C 462.230469 276.554688 462.636719 278.171875 463.441406 279.292969 C 464.226562 280.386719 465.277344 280.921875 466.648438 280.921875 C 468.015625 280.921875 469.066406 280.378906 469.851562 279.265625 C 470.65625 278.128906 471.066406 276.519531 471.066406 274.488281 C 471.066406 272.457031 470.65625 270.847656 469.851562 269.707031 C 469.0625 268.59375 468.015625 268.050781 466.648438 268.050781 Z M 466.648438 285.59375 C 463.753906 285.59375 461.386719 284.550781 459.609375 282.5 C 457.84375 280.464844 456.949219 277.769531 456.949219 274.488281 C 456.949219 271.203125 457.84375 268.507812 459.609375 266.472656 C 461.386719 264.421875 463.753906 263.382812 466.648438 263.382812 C 469.539062 263.382812 471.914062 264.421875 473.710938 266.472656 C 475.496094 268.507812 476.398438 271.203125 476.398438 274.488281 C 476.398438 277.769531 475.496094 280.46875 473.710938 282.503906 C 471.914062 284.550781 469.539062 285.59375 466.648438 285.59375 " fill-opacity="1" fill-rule="nonzero"/><g fill="#000000" fill-opacity="1"><g transform="translate(162.164057, 564.900376)"><g><path d="M 43.1875 -34.734375 L 43.1875 -55.6875 L 54.15625 -55.6875 L 54.15625 0 L 43.1875 0 L 43.1875 -25.359375 L 18.25 -25.359375 L 18.25 0 L 7.234375 0 L 7.234375 -55.6875 L 18.25 -55.6875 L 18.25 -34.734375 Z M 43.1875 -34.734375 "/></g></g><g transform="translate(223.596671, 564.900376)"><g><path d="M 18.25 -24.453125 L 18.25 -9.21875 L 44.828125 -9.21875 L 44.828125 0 L 7.234375 0 L 7.234375 -55.6875 L 44.21875 -55.6875 L 44.21875 -46.46875 L 18.25 -46.46875 L 18.25 -33.4375 L 40.9375 -33.4375 L 40.9375 -24.453125 Z M 18.25 -24.453125 "/></g></g><g transform="translate(271.470692, 564.900376)"><g><path d="M 53.4375 0 L 41.859375 0 L 37.671875 -12.828125 L 16.34375 -12.828125 L 12.15625 0 L 0.84375 0 L 20.078125 -55.6875 L 34.203125 -55.6875 Z M 26.46875 -44.0625 L 19.3125 -22.09375 L 34.625 -22.09375 L 27.421875 -44.0625 Z M 26.46875 -44.0625 "/></g></g><g transform="translate(325.74315, 564.900376)"><g><path d="M 7.234375 0 L 7.234375 -55.6875 L 29.59375 -55.6875 C 35.351562 -55.6875 39.695312 -54.359375 42.625 -51.703125 C 45.5625 -49.046875 47.03125 -45.382812 47.03125 -40.71875 C 47.03125 -37.34375 46.171875 -34.570312 44.453125 -32.40625 C 42.742188 -30.25 40.191406 -28.597656 36.796875 -27.453125 L 36.796875 -26.65625 C 38.546875 -25.894531 39.957031 -24.765625 41.03125 -23.265625 C 42.113281 -21.773438 43.140625 -19.554688 44.109375 -16.609375 L 49.671875 0 L 38.359375 0 L 32.90625 -16.640625 C 32.34375 -18.316406 31.710938 -19.617188 31.015625 -20.546875 C 30.316406 -21.472656 29.425781 -22.144531 28.34375 -22.5625 C 27.269531 -22.976562 25.867188 -23.1875 24.140625 -23.1875 L 18.25 -23.1875 L 18.25 0 Z M 28.265625 -31.921875 C 33.597656 -31.921875 36.265625 -34.40625 36.265625 -39.375 C 36.265625 -44.425781 33.597656 -46.953125 28.265625 -46.953125 L 18.25 -46.953125 L 18.25 -31.921875 Z M 28.265625 -31.921875 "/></g></g></g><g fill="#000000" fill-opacity="1"><g transform="translate(377.159166, 564.900376)"><g><path d="M 44.640625 -55.6875 L 44.640625 -46.421875 L 28.5625 -46.421875 L 28.5625 0 L 17.59375 0 L 17.59375 -46.421875 L 1.53125 -46.421875 L 1.53125 -55.6875 Z M 44.640625 -55.6875 "/></g></g></g><g fill="#000000" fill-opacity="1"><g transform="translate(421.986312, 564.900376)"><g><path d="M 30.4375 0.796875 C 25.300781 0.796875 20.773438 -0.265625 16.859375 -2.390625 C 12.953125 -4.523438 9.894531 -7.734375 7.6875 -12.015625 C 5.476562 -16.296875 4.375 -21.570312 4.375 -27.84375 C 4.375 -34.113281 5.476562 -39.382812 7.6875 -43.65625 C 9.894531 -47.9375 12.953125 -51.144531 16.859375 -53.28125 C 20.773438 -55.414062 25.300781 -56.484375 30.4375 -56.484375 C 35.789062 -56.484375 40.335938 -55.4375 44.078125 -53.34375 C 47.828125 -51.25 50.503906 -48.054688 52.109375 -43.765625 L 44.0625 -38.84375 L 43.109375 -38.890625 C 41.921875 -41.785156 40.300781 -43.859375 38.25 -45.109375 C 36.207031 -46.367188 33.601562 -47 30.4375 -47 C 25.8125 -47 22.203125 -45.46875 19.609375 -42.40625 C 17.023438 -39.34375 15.734375 -34.488281 15.734375 -27.84375 C 15.734375 -21.21875 17.023438 -16.375 19.609375 -13.3125 C 22.203125 -10.25 25.8125 -8.71875 30.4375 -8.71875 C 37.664062 -8.71875 42.09375 -12.234375 43.71875 -19.265625 L 44.671875 -19.265625 L 52.78125 -15.046875 C 51.257812 -9.765625 48.65625 -5.800781 44.96875 -3.15625 C 41.289062 -0.519531 36.445312 0.796875 30.4375 0.796875 Z M 30.4375 0.796875 "/></g></g><g transform="translate(476.601544, 564.900376)"><g><path d="M 53.4375 0 L 41.859375 0 L 37.671875 -12.828125 L 16.34375 -12.828125 L 12.15625 0 L 0.84375 0 L 20.078125 -55.6875 L 34.203125 -55.6875 Z M 26.46875 -44.0625 L 19.3125 -22.09375 L 34.625 -22.09375 L 27.421875 -44.0625 Z M 26.46875 -44.0625 "/></g></g><g transform="translate(530.874002, 564.900376)"><g><path d="M 18.25 -55.6875 L 18.25 -9.21875 L 43.265625 -9.21875 L 43.265625 0 L 7.234375 0 L 7.234375 -55.6875 Z M 18.25 -55.6875 "/></g></g><g transform="translate(575.967749, 564.900376)"><g><path d="M 17.328125 0 L 7.234375 0 L 7.234375 -55.6875 L 21.640625 -55.6875 L 35.71875 -14.734375 L 36.53125 -14.734375 L 50.546875 -55.6875 L 64.59375 -55.6875 L 64.59375 0 L 54.15625 0 L 54.15625 -36.796875 L 53.203125 -36.9375 L 40.328125 0 L 31.15625 0 L 18.28125 -36.9375 L 17.328125 -36.796875 Z M 17.328125 0 "/></g></g></g><g transform="matrix(1, 0, 0, 1, 162, 578)"><g clip-path="url(#693bf77bb4)"><g fill="#000000" fill-opacity="1"><g transform="translate(0.0833231, 39.853538)"><g><path d="M 11.421875 0.375 C 9.671875 0.375 8.097656 -0.0195312 6.703125 -0.8125 C 5.304688 -1.613281 4.203125 -2.796875 3.390625 -4.359375 C 2.585938 -5.921875 2.1875 -7.785156 2.1875 -9.953125 C 2.1875 -12.128906 2.585938 -13.992188 3.390625 -15.546875 C 4.203125 -17.109375 5.304688 -18.289062 6.703125 -19.09375 C 8.097656 -19.894531 9.671875 -20.296875 11.421875 -20.296875 C 13.523438 -20.296875 15.203125 -19.894531 16.453125 -19.09375 C 17.703125 -18.300781 18.601562 -17.242188 19.15625 -15.921875 L 17.15625 -14.484375 L 16.78125 -14.484375 C 16.238281 -15.578125 15.546875 -16.378906 14.703125 -16.890625 C 13.859375 -17.398438 12.765625 -17.65625 11.421875 -17.65625 C 10.191406 -17.65625 9.113281 -17.363281 8.1875 -16.78125 C 7.269531 -16.207031 6.550781 -15.34375 6.03125 -14.1875 C 5.519531 -13.03125 5.265625 -11.617188 5.265625 -9.953125 C 5.265625 -8.285156 5.523438 -6.875 6.046875 -5.71875 C 6.566406 -4.570312 7.285156 -3.707031 8.203125 -3.125 C 9.117188 -2.539062 10.191406 -2.25 11.421875 -2.25 C 12.804688 -2.25 13.953125 -2.5625 14.859375 -3.1875 C 15.773438 -3.820312 16.488281 -4.8125 17 -6.15625 L 17.390625 -6.15625 L 19.3125 -5.015625 C 18.789062 -3.347656 17.863281 -2.03125 16.53125 -1.0625 C 15.207031 -0.101562 13.503906 0.375 11.421875 0.375 Z M 11.421875 0.375 "/></g></g></g><g fill="#000000" fill-opacity="1"><g transform="translate(20.604172, 39.853538)"><g><path d="M 8.21875 0.375 C 6.25 0.375 4.710938 -0.132812 3.609375 -1.15625 C 2.515625 -2.175781 1.96875 -3.640625 1.96875 -5.546875 C 1.96875 -6.722656 2.210938 -7.71875 2.703125 -8.53125 C 3.191406 -9.34375 3.945312 -10.003906 4.96875 -10.515625 C 5.988281 -11.023438 7.320312 -11.421875 8.96875 -11.703125 C 10.414062 -11.941406 11.515625 -12.207031 12.265625 -12.5 C 13.015625 -12.800781 13.519531 -13.140625 13.78125 -13.515625 C 14.039062 -13.890625 14.171875 -14.359375 14.171875 -14.921875 C 14.171875 -15.828125 13.859375 -16.519531 13.234375 -17 C 12.617188 -17.476562 11.625 -17.71875 10.25 -17.71875 C 8.96875 -17.71875 7.863281 -17.46875 6.9375 -16.96875 C 6.019531 -16.476562 5.175781 -15.738281 4.40625 -14.75 L 4.046875 -14.75 L 2.59375 -16.78125 C 3.4375 -17.851562 4.507812 -18.707031 5.8125 -19.34375 C 7.113281 -19.976562 8.59375 -20.296875 10.25 -20.296875 C 12.59375 -20.296875 14.320312 -19.78125 15.4375 -18.75 C 16.550781 -17.71875 17.109375 -16.296875 17.109375 -14.484375 L 17.109375 -3.921875 C 17.109375 -2.804688 17.578125 -2.25 18.515625 -2.25 C 18.828125 -2.25 19.128906 -2.304688 19.421875 -2.421875 L 19.671875 -2.34375 L 20.015625 -0.3125 C 19.796875 -0.164062 19.507812 -0.0546875 19.15625 0.015625 C 18.800781 0.0976562 18.4375 0.140625 18.0625 0.140625 C 16.96875 0.140625 16.140625 -0.0976562 15.578125 -0.578125 C 15.023438 -1.054688 14.671875 -1.765625 14.515625 -2.703125 L 14.140625 -2.75 C 13.566406 -1.695312 12.796875 -0.910156 11.828125 -0.390625 C 10.867188 0.117188 9.664062 0.375 8.21875 0.375 Z M 8.859375 -1.96875 C 9.972656 -1.96875 10.929688 -2.222656 11.734375 -2.734375 C 12.546875 -3.242188 13.171875 -3.960938 13.609375 -4.890625 C 14.046875 -5.816406 14.265625 -6.890625 14.265625 -8.109375 L 14.265625 -10.625 L 13.921875 -10.703125 C 13.472656 -10.390625 12.929688 -10.128906 12.296875 -9.921875 C 11.660156 -9.710938 10.769531 -9.519531 9.625 -9.34375 C 8.46875 -9.1875 7.546875 -8.945312 6.859375 -8.625 C 6.179688 -8.300781 5.695312 -7.890625 5.40625 -7.390625 C 5.125 -6.890625 4.984375 -6.273438 4.984375 -5.546875 C 4.984375 -4.378906 5.328125 -3.488281 6.015625 -2.875 C 6.703125 -2.269531 7.648438 -1.96875 8.859375 -1.96875 Z M 8.859375 -1.96875 "/></g></g></g><g fill="#000000" fill-opacity="1"><g transform="translate(41.197214, 39.853538)"><g><path d="M 7.921875 0.375 C 6.515625 0.375 5.40625 -0.0195312 4.59375 -0.8125 C 3.789062 -1.613281 3.390625 -2.8125 3.390625 -4.40625 L 3.390625 -27.90625 L 6.34375 -27.90625 L 6.34375 -4.609375 C 6.34375 -3.773438 6.5 -3.171875 6.8125 -2.796875 C 7.132812 -2.429688 7.628906 -2.25 8.296875 -2.25 C 8.710938 -2.25 9.128906 -2.316406 9.546875 -2.453125 L 9.796875 -2.375 L 10.140625 -0.078125 C 9.921875 0.0664062 9.609375 0.175781 9.203125 0.25 C 8.804688 0.332031 8.378906 0.375 7.921875 0.375 Z M 7.921875 0.375 "/></g></g></g><g fill="#000000" fill-opacity="1"><g transform="translate(52.026158, 39.853538)"><g><path d="M 3.46875 0 L 3.46875 -19.90625 L 6.265625 -19.90625 L 6.265625 -16.96875 L 6.640625 -16.890625 C 7.316406 -18.015625 8.132812 -18.863281 9.09375 -19.4375 C 10.050781 -20.007812 11.195312 -20.296875 12.53125 -20.296875 C 14.070312 -20.296875 15.257812 -20 16.09375 -19.40625 C 16.9375 -18.820312 17.59375 -17.882812 18.0625 -16.59375 L 18.453125 -16.59375 C 19.140625 -17.800781 19.984375 -18.71875 20.984375 -19.34375 C 21.984375 -19.976562 23.21875 -20.296875 24.6875 -20.296875 C 26.738281 -20.296875 28.265625 -19.738281 29.265625 -18.625 C 30.273438 -17.519531 30.78125 -15.835938 30.78125 -13.578125 L 30.78125 0 L 27.828125 0 L 27.828125 -13.5 C 27.828125 -14.945312 27.523438 -16.007812 26.921875 -16.6875 C 26.316406 -17.375 25.335938 -17.71875 23.984375 -17.71875 C 22.398438 -17.71875 21.101562 -17.140625 20.09375 -15.984375 C 19.09375 -14.835938 18.59375 -12.941406 18.59375 -10.296875 L 18.59375 0 L 15.65625 0 L 15.65625 -13.5 C 15.65625 -14.945312 15.347656 -16.007812 14.734375 -16.6875 C 14.128906 -17.375 13.15625 -17.71875 11.8125 -17.71875 C 10.21875 -17.71875 8.914062 -17.160156 7.90625 -16.046875 C 6.90625 -14.929688 6.40625 -13.113281 6.40625 -10.59375 L 6.40625 0 Z M 3.46875 0 "/></g></g></g><g fill="#000000" fill-opacity="1"><g transform="translate(85.956849, 39.853538)"><g/></g></g><g fill="#000000" fill-opacity="1"><g transform="translate(95.017065, 39.853538)"><g><path d="M 8.21875 0.375 C 6.25 0.375 4.710938 -0.132812 3.609375 -1.15625 C 2.515625 -2.175781 1.96875 -3.640625 1.96875 -5.546875 C 1.96875 -6.722656 2.210938 -7.71875 2.703125 -8.53125 C 3.191406 -9.34375 3.945312 -10.003906 4.96875 -10.515625 C 5.988281 -11.023438 7.320312 -11.421875 8.96875 -11.703125 C 10.414062 -11.941406 11.515625 -12.207031 12.265625 -12.5 C 13.015625 -12.800781 13.519531 -13.140625 13.78125 -13.515625 C 14.039062 -13.890625 14.171875 -14.359375 14.171875 -14.921875 C 14.171875 -15.828125 13.859375 -16.519531 13.234375 -17 C 12.617188 -17.476562 11.625 -17.71875 10.25 -17.71875 C 8.96875 -17.71875 7.863281 -17.46875 6.9375 -16.96875 C 6.019531 -16.476562 5.175781 -15.738281 4.40625 -14.75 L 4.046875 -14.75 L 2.59375 -16.78125 C 3.4375 -17.851562 4.507812 -18.707031 5.8125 -19.34375 C 7.113281 -19.976562 8.59375 -20.296875 10.25 -20.296875 C 12.59375 -20.296875 14.320312 -19.78125 15.4375 -18.75 C 16.550781 -17.71875 17.109375 -16.296875 17.109375 -14.484375 L 17.109375 -3.921875 C 17.109375 -2.804688 17.578125 -2.25 18.515625 -2.25 C 18.828125 -2.25 19.128906 -2.304688 19.421875 -2.421875 L 19.671875 -2.34375 L 20.015625 -0.3125 C 19.796875 -0.164062 19.507812 -0.0546875 19.15625 0.015625 C 18.800781 0.0976562 18.4375 0.140625 18.0625 0.140625 C 16.96875 0.140625 16.140625 -0.0976562 15.578125 -0.578125 C 15.023438 -1.054688 14.671875 -1.765625 14.515625 -2.703125 L 14.140625 -2.75 C 13.566406 -1.695312 12.796875 -0.910156 11.828125 -0.390625 C 10.867188 0.117188 9.664062 0.375 8.21875 0.375 Z M 8.859375 -1.96875 C 9.972656 -1.96875 10.929688 -2.222656 11.734375 -2.734375 C 12.546875 -3.242188 13.171875 -3.960938 13.609375 -4.890625 C 14.046875 -5.816406 14.265625 -6.890625 14.265625 -8.109375 L 14.265625 -10.625 L 13.921875 -10.703125 C 13.472656 -10.390625 12.929688 -10.128906 12.296875 -9.921875 C 11.660156 -9.710938 10.769531 -9.519531 9.625 -9.34375 C 8.46875 -9.1875 7.546875 -8.945312 6.859375 -8.625 C 6.179688 -8.300781 5.695312 -7.890625 5.40625 -7.390625 C 5.125 -6.890625 4.984375 -6.273438 4.984375 -5.546875 C 4.984375 -4.378906 5.328125 -3.488281 6.015625 -2.875 C 6.703125 -2.269531 7.648438 -1.96875 8.859375 -1.96875 Z M 8.859375 -1.96875 "/></g></g></g><g fill="#000000" fill-opacity="1"><g transform="translate(115.610107, 39.853538)"><g><path d="M 3.46875 0 L 3.46875 -19.90625 L 6.265625 -19.90625 L 6.265625 -16.78125 L 6.640625 -16.703125 C 7.304688 -17.867188 8.148438 -18.757812 9.171875 -19.375 C 10.203125 -19.988281 11.457031 -20.296875 12.9375 -20.296875 C 15.332031 -20.296875 17.066406 -19.679688 18.140625 -18.453125 C 19.222656 -17.234375 19.765625 -15.351562 19.765625 -12.8125 L 19.765625 0 L 16.828125 0 L 16.828125 -12.75 C 16.828125 -13.945312 16.671875 -14.910156 16.359375 -15.640625 C 16.054688 -16.367188 15.582031 -16.894531 14.9375 -17.21875 C 14.289062 -17.550781 13.445312 -17.71875 12.40625 -17.71875 C 10.613281 -17.71875 9.164062 -17.125 8.0625 -15.9375 C 6.957031 -14.757812 6.40625 -12.851562 6.40625 -10.21875 L 6.40625 0 Z M 3.46875 0 "/></g></g></g><g fill="#000000" fill-opacity="1"><g transform="translate(138.531372, 39.853538)"><g><path d="M 10.328125 0.375 C 8.722656 0.375 7.3125 -0.00390625 6.09375 -0.765625 C 4.875 -1.523438 3.914062 -2.675781 3.21875 -4.21875 C 2.53125 -5.757812 2.1875 -7.671875 2.1875 -9.953125 C 2.1875 -12.222656 2.546875 -14.128906 3.265625 -15.671875 C 3.984375 -17.222656 4.976562 -18.378906 6.25 -19.140625 C 7.519531 -19.910156 8.992188 -20.296875 10.671875 -20.296875 C 11.992188 -20.296875 13.179688 -20.046875 14.234375 -19.546875 C 15.296875 -19.046875 16.207031 -18.222656 16.96875 -17.078125 L 17.34375 -17.15625 L 17.34375 -27.90625 L 20.296875 -27.90625 L 20.296875 0 L 17.34375 0 L 17.34375 -2.90625 L 16.96875 -2.984375 C 16.320312 -1.992188 15.441406 -1.1875 14.328125 -0.5625 C 13.210938 0.0625 11.878906 0.375 10.328125 0.375 Z M 11.25 -2.25 C 13.101562 -2.25 14.582031 -2.882812 15.6875 -4.15625 C 16.789062 -5.425781 17.34375 -7.359375 17.34375 -9.953125 C 17.34375 -12.546875 16.789062 -14.476562 15.6875 -15.75 C 14.582031 -17.019531 13.101562 -17.65625 11.25 -17.65625 C 9.332031 -17.65625 7.851562 -17.035156 6.8125 -15.796875 C 5.78125 -14.554688 5.265625 -12.609375 5.265625 -9.953125 C 5.265625 -4.816406 7.257812 -2.25 11.25 -2.25 Z M 11.25 -2.25 "/></g></g></g><g fill="#000000" fill-opacity="1"><g transform="translate(162.300904, 39.853538)"><g/></g></g><g fill="#000000" fill-opacity="1"><g transform="translate(171.361121, 39.853538)"><g><path d="M 11.421875 0.375 C 9.671875 0.375 8.097656 -0.0195312 6.703125 -0.8125 C 5.304688 -1.613281 4.203125 -2.796875 3.390625 -4.359375 C 2.585938 -5.921875 2.1875 -7.785156 2.1875 -9.953125 C 2.1875 -12.128906 2.585938 -13.992188 3.390625 -15.546875 C 4.203125 -17.109375 5.304688 -18.289062 6.703125 -19.09375 C 8.097656 -19.894531 9.671875 -20.296875 11.421875 -20.296875 C 13.523438 -20.296875 15.203125 -19.894531 16.453125 -19.09375 C 17.703125 -18.300781 18.601562 -17.242188 19.15625 -15.921875 L 17.15625 -14.484375 L 16.78125 -14.484375 C 16.238281 -15.578125 15.546875 -16.378906 14.703125 -16.890625 C 13.859375 -17.398438 12.765625 -17.65625 11.421875 -17.65625 C 10.191406 -17.65625 9.113281 -17.363281 8.1875 -16.78125 C 7.269531 -16.207031 6.550781 -15.34375 6.03125 -14.1875 C 5.519531 -13.03125 5.265625 -11.617188 5.265625 -9.953125 C 5.265625 -8.285156 5.523438 -6.875 6.046875 -5.71875 C 6.566406 -4.570312 7.285156 -3.707031 8.203125 -3.125 C 9.117188 -2.539062 10.191406 -2.25 11.421875 -2.25 C 12.804688 -2.25 13.953125 -2.5625 14.859375 -3.1875 C 15.773438 -3.820312 16.488281 -4.8125 17 -6.15625 L 17.390625 -6.15625 L 19.3125 -5.015625 C 18.789062 -3.347656 17.863281 -2.03125 16.53125 -1.0625 C 15.207031 -0.101562 13.503906 0.375 11.421875 0.375 Z M 11.421875 0.375 "/></g></g></g><g fill="#000000" fill-opacity="1"><g transform="translate(191.88198, 39.853538)"><g><path d="M 11.421875 0.375 C 9.546875 0.375 7.910156 -0.0195312 6.515625 -0.8125 C 5.128906 -1.601562 4.0625 -2.769531 3.3125 -4.3125 C 2.5625 -5.863281 2.1875 -7.742188 2.1875 -9.953125 C 2.1875 -12.148438 2.5625 -14.023438 3.3125 -15.578125 C 4.0625 -17.128906 5.128906 -18.300781 6.515625 -19.09375 C 7.910156 -19.894531 9.546875 -20.296875 11.421875 -20.296875 C 13.304688 -20.296875 14.941406 -19.894531 16.328125 -19.09375 C 17.710938 -18.300781 18.78125 -17.128906 19.53125 -15.578125 C 20.289062 -14.023438 20.671875 -12.148438 20.671875 -9.953125 C 20.671875 -7.742188 20.289062 -5.863281 19.53125 -4.3125 C 18.78125 -2.769531 17.710938 -1.601562 16.328125 -0.8125 C 14.941406 -0.0195312 13.304688 0.375 11.421875 0.375 Z M 11.421875 -2.25 C 13.410156 -2.25 14.929688 -2.875 15.984375 -4.125 C 17.035156 -5.382812 17.5625 -7.328125 17.5625 -9.953125 C 17.5625 -12.585938 17.035156 -14.53125 15.984375 -15.78125 C 14.929688 -17.03125 13.410156 -17.65625 11.421875 -17.65625 C 9.441406 -17.65625 7.921875 -17.023438 6.859375 -15.765625 C 5.796875 -14.503906 5.265625 -12.566406 5.265625 -9.953125 C 5.265625 -7.328125 5.796875 -5.382812 6.859375 -4.125 C 7.921875 -2.875 9.441406 -2.25 11.421875 -2.25 Z M 11.421875 -2.25 "/></g></g></g><g fill="#000000" fill-opacity="1"><g transform="translate(214.731032, 39.853538)"><g><path d="M 3.46875 0 L 3.46875 -19.90625 L 6.265625 -19.90625 L 6.265625 -16.96875 L 6.640625 -16.890625 C 7.316406 -18.015625 8.132812 -18.863281 9.09375 -19.4375 C 10.050781 -20.007812 11.195312 -20.296875 12.53125 -20.296875 C 14.070312 -20.296875 15.257812 -20 16.09375 -19.40625 C 16.9375 -18.820312 17.59375 -17.882812 18.0625 -16.59375 L 18.453125 -16.59375 C 19.140625 -17.800781 19.984375 -18.71875 20.984375 -19.34375 C 21.984375 -19.976562 23.21875 -20.296875 24.6875 -20.296875 C 26.738281 -20.296875 28.265625 -19.738281 29.265625 -18.625 C 30.273438 -17.519531 30.78125 -15.835938 30.78125 -13.578125 L 30.78125 0 L 27.828125 0 L 27.828125 -13.5 C 27.828125 -14.945312 27.523438 -16.007812 26.921875 -16.6875 C 26.316406 -17.375 25.335938 -17.71875 23.984375 -17.71875 C 22.398438 -17.71875 21.101562 -17.140625 20.09375 -15.984375 C 19.09375 -14.835938 18.59375 -12.941406 18.59375 -10.296875 L 18.59375 0 L 15.65625 0 L 15.65625 -13.5 C 15.65625 -14.945312 15.347656 -16.007812 14.734375 -16.6875 C 14.128906 -17.375 13.15625 -17.71875 11.8125 -17.71875 C 10.21875 -17.71875 8.914062 -17.160156 7.90625 -16.046875 C 6.90625 -14.929688 6.40625 -13.113281 6.40625 -10.59375 L 6.40625 0 Z M 3.46875 0 "/></g></g></g><g fill="#000000" fill-opacity="1"><g transform="translate(248.661723, 39.853538)"><g><path d="M 4.4375 0 L 4.4375 -17.515625 L 0.96875 -17.515625 L 0.96875 -19.921875 L 4.4375 -19.921875 C 4.21875 -20.796875 4.109375 -21.625 4.109375 -22.40625 C 4.109375 -23.6875 4.382812 -24.769531 4.9375 -25.65625 C 5.488281 -26.539062 6.25 -27.195312 7.21875 -27.625 C 8.195312 -28.0625 9.320312 -28.28125 10.59375 -28.28125 C 12.582031 -28.28125 14.101562 -27.851562 15.15625 -27 L 14.03125 -24.921875 L 13.640625 -24.859375 C 12.859375 -25.484375 11.84375 -25.796875 10.59375 -25.796875 C 9.425781 -25.796875 8.546875 -25.492188 7.953125 -24.890625 C 7.359375 -24.285156 7.0625 -23.429688 7.0625 -22.328125 C 7.0625 -21.640625 7.171875 -20.835938 7.390625 -19.921875 L 13.71875 -19.921875 L 13.71875 -17.515625 L 7.390625 -17.515625 L 7.390625 0 Z M 4.4375 0 "/></g></g></g><g fill="#000000" fill-opacity="1"><g transform="translate(262.84766, 39.853538)"><g><path d="M 11.421875 0.375 C 9.546875 0.375 7.910156 -0.0195312 6.515625 -0.8125 C 5.128906 -1.601562 4.0625 -2.769531 3.3125 -4.3125 C 2.5625 -5.863281 2.1875 -7.742188 2.1875 -9.953125 C 2.1875 -12.148438 2.5625 -14.023438 3.3125 -15.578125 C 4.0625 -17.128906 5.128906 -18.300781 6.515625 -19.09375 C 7.910156 -19.894531 9.546875 -20.296875 11.421875 -20.296875 C 13.304688 -20.296875 14.941406 -19.894531 16.328125 -19.09375 C 17.710938 -18.300781 18.78125 -17.128906 19.53125 -15.578125 C 20.289062 -14.023438 20.671875 -12.148438 20.671875 -9.953125 C 20.671875 -7.742188 20.289062 -5.863281 19.53125 -4.3125 C 18.78125 -2.769531 17.710938 -1.601562 16.328125 -0.8125 C 14.941406 -0.0195312 13.304688 0.375 11.421875 0.375 Z M 11.421875 -2.25 C 13.410156 -2.25 14.929688 -2.875 15.984375 -4.125 C 17.035156 -5.382812 17.5625 -7.328125 17.5625 -9.953125 C 17.5625 -12.585938 17.035156 -14.53125 15.984375 -15.78125 C 14.929688 -17.03125 13.410156 -17.65625 11.421875 -17.65625 C 9.441406 -17.65625 7.921875 -17.023438 6.859375 -15.765625 C 5.796875 -14.503906 5.265625 -12.566406 5.265625 -9.953125 C 5.265625 -7.328125 5.796875 -5.382812 6.859375 -4.125 C 7.921875 -2.875 9.441406 -2.25 11.421875 -2.25 Z M 11.421875 -2.25 "/></g></g></g><g fill="#000000" fill-opacity="1"><g transform="translate(285.696712, 39.853538)"><g><path d="M 3.46875 0 L 3.46875 -19.90625 L 6.265625 -19.90625 L 6.265625 -16.78125 L 6.640625 -16.703125 C 7.566406 -18.960938 9.3125 -20.09375 11.875 -20.09375 C 13.238281 -20.09375 14.253906 -19.84375 14.921875 -19.34375 L 14.171875 -16.859375 L 13.8125 -16.78125 C 13.0625 -17.15625 12.242188 -17.34375 11.359375 -17.34375 C 9.765625 -17.34375 8.539062 -16.742188 7.6875 -15.546875 C 6.832031 -14.359375 6.40625 -12.429688 6.40625 -9.765625 L 6.40625 0 Z M 3.46875 0 "/></g></g></g><g fill="#000000" fill-opacity="1"><g transform="translate(301.073813, 39.853538)"><g><path d="M 13.46875 -3.15625 L 14.40625 -1.046875 C 13.9375 -0.578125 13.316406 -0.222656 12.546875 0.015625 C 11.785156 0.253906 10.960938 0.375 10.078125 0.375 C 6.273438 0.375 4.375 -1.546875 4.375 -5.390625 L 4.375 -17.515625 L 0.90625 -17.515625 L 0.90625 -19.921875 L 4.375 -19.921875 L 4.375 -24.140625 L 7.3125 -24.625 L 7.3125 -19.921875 L 13.71875 -19.921875 L 13.71875 -17.515625 L 7.3125 -17.515625 L 7.3125 -5.6875 C 7.3125 -3.394531 8.304688 -2.25 10.296875 -2.25 C 11.367188 -2.25 12.300781 -2.550781 13.09375 -3.15625 Z M 13.46875 -3.15625 "/></g></g></g><g fill="#000000" fill-opacity="1"><g transform="translate(316.234335, 39.853538)"><g/></g></g><g fill="#000000" fill-opacity="1"><g transform="translate(325.294571, 39.853538)"><g><path d="M 3.984375 8.453125 C 3.316406 8.453125 2.691406 8.394531 2.109375 8.28125 C 1.523438 8.164062 1.019531 8.003906 0.59375 7.796875 L 1.140625 5.46875 L 1.46875 5.359375 C 1.75 5.503906 2.101562 5.628906 2.53125 5.734375 C 2.96875 5.835938 3.414062 5.890625 3.875 5.890625 C 4.6875 5.890625 5.351562 5.78125 5.875 5.5625 C 6.40625 5.34375 6.859375 4.984375 7.234375 4.484375 C 7.617188 3.984375 7.972656 3.296875 8.296875 2.421875 L 9 0.46875 L 1.015625 -19.90625 L 4.1875 -19.90625 L 10.453125 -3.671875 L 10.796875 -3.671875 L 16.859375 -19.90625 L 19.875 -19.90625 L 10.96875 3.125 C 10.46875 4.394531 9.90625 5.414062 9.28125 6.1875 C 8.65625 6.96875 7.914062 7.539062 7.0625 7.90625 C 6.207031 8.269531 5.179688 8.453125 3.984375 8.453125 Z M 3.984375 8.453125 "/></g></g></g><g fill="#000000" fill-opacity="1"><g transform="translate(346.284684, 39.853538)"><g><path d="M 11.421875 0.375 C 9.546875 0.375 7.910156 -0.0195312 6.515625 -0.8125 C 5.128906 -1.601562 4.0625 -2.769531 3.3125 -4.3125 C 2.5625 -5.863281 2.1875 -7.742188 2.1875 -9.953125 C 2.1875 -12.148438 2.5625 -14.023438 3.3125 -15.578125 C 4.0625 -17.128906 5.128906 -18.300781 6.515625 -19.09375 C 7.910156 -19.894531 9.546875 -20.296875 11.421875 -20.296875 C 13.304688 -20.296875 14.941406 -19.894531 16.328125 -19.09375 C 17.710938 -18.300781 18.78125 -17.128906 19.53125 -15.578125 C 20.289062 -14.023438 20.671875 -12.148438 20.671875 -9.953125 C 20.671875 -7.742188 20.289062 -5.863281 19.53125 -4.3125 C 18.78125 -2.769531 17.710938 -1.601562 16.328125 -0.8125 C 14.941406 -0.0195312 13.304688 0.375 11.421875 0.375 Z M 11.421875 -2.25 C 13.410156 -2.25 14.929688 -2.875 15.984375 -4.125 C 17.035156 -5.382812 17.5625 -7.328125 17.5625 -9.953125 C 17.5625 -12.585938 17.035156 -14.53125 15.984375 -15.78125 C 14.929688 -17.03125 13.410156 -17.65625 11.421875 -17.65625 C 9.441406 -17.65625 7.921875 -17.023438 6.859375 -15.765625 C 5.796875 -14.503906 5.265625 -12.566406 5.265625 -9.953125 C 5.265625 -7.328125 5.796875 -5.382812 6.859375 -4.125 C 7.921875 -2.875 9.441406 -2.25 11.421875 -2.25 Z M 11.421875 -2.25 "/></g></g></g><g fill="#000000" fill-opacity="1"><g transform="translate(369.133736, 39.853538)"><g><path d="M 9.84375 0.375 C 7.59375 0.375 5.914062 -0.21875 4.8125 -1.40625 C 3.707031 -2.59375 3.15625 -4.335938 3.15625 -6.640625 L 3.15625 -19.90625 L 6.09375 -19.90625 L 6.09375 -6.71875 C 6.09375 -3.695312 7.515625 -2.1875 10.359375 -2.1875 C 12.160156 -2.1875 13.582031 -2.773438 14.625 -3.953125 C 15.675781 -5.128906 16.203125 -7.039062 16.203125 -9.6875 L 16.203125 -19.90625 L 19.15625 -19.90625 L 19.15625 0 L 16.375 0 L 16.375 -3.125 L 16 -3.21875 C 15.3125 -2 14.488281 -1.09375 13.53125 -0.5 C 12.570312 0.0820312 11.34375 0.375 9.84375 0.375 Z M 9.84375 0.375 "/></g></g></g><g fill="#000000" fill-opacity="1"><g transform="translate(391.748172, 39.853538)"><g><path d="M 3.46875 0 L 3.46875 -19.90625 L 6.265625 -19.90625 L 6.265625 -16.78125 L 6.640625 -16.703125 C 7.566406 -18.960938 9.3125 -20.09375 11.875 -20.09375 C 13.238281 -20.09375 14.253906 -19.84375 14.921875 -19.34375 L 14.171875 -16.859375 L 13.8125 -16.78125 C 13.0625 -17.15625 12.242188 -17.34375 11.359375 -17.34375 C 9.765625 -17.34375 8.539062 -16.742188 7.6875 -15.546875 C 6.832031 -14.359375 6.40625 -12.429688 6.40625 -9.765625 L 6.40625 0 Z M 3.46875 0 "/></g></g></g><g fill="#000000" fill-opacity="1"><g transform="translate(407.125272, 39.853538)"><g/></g></g><g fill="#000000" fill-opacity="1"><g transform="translate(416.185508, 39.853538)"><g><path d="M 9.078125 0.375 C 7.828125 0.375 6.664062 0.210938 5.59375 -0.109375 C 4.53125 -0.441406 3.632812 -0.894531 2.90625 -1.46875 C 2.175781 -2.050781 1.660156 -2.707031 1.359375 -3.4375 L 3.09375 -5.234375 L 3.46875 -5.234375 C 4.113281 -4.242188 4.894531 -3.5 5.8125 -3 C 6.726562 -2.5 7.816406 -2.25 9.078125 -2.25 C 10.546875 -2.25 11.660156 -2.535156 12.421875 -3.109375 C 13.191406 -3.679688 13.578125 -4.476562 13.578125 -5.5 C 13.578125 -6.28125 13.34375 -6.925781 12.875 -7.4375 C 12.414062 -7.957031 11.664062 -8.34375 10.625 -8.59375 L 7.28125 -9.421875 C 5.476562 -9.859375 4.164062 -10.546875 3.34375 -11.484375 C 2.519531 -12.421875 2.109375 -13.582031 2.109375 -14.96875 C 2.109375 -16.050781 2.382812 -16.988281 2.9375 -17.78125 C 3.488281 -18.582031 4.285156 -19.203125 5.328125 -19.640625 C 6.367188 -20.078125 7.609375 -20.296875 9.046875 -20.296875 C 10.867188 -20.296875 12.304688 -20.035156 13.359375 -19.515625 C 14.421875 -19.003906 15.242188 -18.296875 15.828125 -17.390625 L 14.171875 -15.765625 L 13.8125 -15.765625 C 13.175781 -16.492188 12.476562 -17.019531 11.71875 -17.34375 C 10.96875 -17.664062 10.078125 -17.828125 9.046875 -17.828125 C 7.734375 -17.828125 6.726562 -17.59375 6.03125 -17.125 C 5.332031 -16.65625 4.984375 -15.976562 4.984375 -15.09375 C 4.984375 -14.28125 5.226562 -13.628906 5.71875 -13.140625 C 6.21875 -12.648438 7.078125 -12.253906 8.296875 -11.953125 L 11.609375 -11.15625 C 13.335938 -10.75 14.585938 -10.066406 15.359375 -9.109375 C 16.128906 -8.160156 16.515625 -6.972656 16.515625 -5.546875 C 16.515625 -4.378906 16.238281 -3.347656 15.6875 -2.453125 C 15.132812 -1.566406 14.296875 -0.875 13.171875 -0.375 C 12.054688 0.125 10.691406 0.375 9.078125 0.375 Z M 9.078125 0.375 "/></g></g></g><g fill="#000000" fill-opacity="1"><g transform="translate(434.594713, 39.853538)"><g><path d="M 3.46875 0 L 3.46875 -27.90625 L 6.40625 -27.90625 L 6.40625 -11.609375 L 6.890625 -11.609375 L 14.296875 -19.90625 L 17.390625 -19.90625 L 17.390625 -19.5 L 9.5 -10.5625 L 18.140625 -0.453125 L 18.140625 0 L 14.859375 0 L 6.890625 -9.203125 L 6.40625 -9.203125 L 6.40625 0 Z M 3.46875 0 "/></g></g></g><g fill="#000000" fill-opacity="1"><g transform="translate(453.112188, 39.853538)"><g><path d="M 4.953125 -23.75 C 4.316406 -23.75 3.800781 -23.941406 3.40625 -24.328125 C 3.019531 -24.722656 2.828125 -25.222656 2.828125 -25.828125 C 2.828125 -26.429688 3.019531 -26.925781 3.40625 -27.3125 C 3.800781 -27.707031 4.316406 -27.90625 4.953125 -27.90625 C 5.578125 -27.90625 6.082031 -27.707031 6.46875 -27.3125 C 6.863281 -26.925781 7.0625 -26.429688 7.0625 -25.828125 C 7.0625 -25.222656 6.863281 -24.722656 6.46875 -24.328125 C 6.082031 -23.941406 5.578125 -23.75 4.953125 -23.75 Z M 3.46875 0 L 3.46875 -19.90625 L 6.40625 -19.90625 L 6.40625 0 Z M 3.46875 0 "/></g></g></g><g fill="#000000" fill-opacity="1"><g transform="translate(462.984585, 39.853538)"><g><path d="M 3.46875 0 L 3.46875 -19.90625 L 6.265625 -19.90625 L 6.265625 -16.78125 L 6.640625 -16.703125 C 7.304688 -17.867188 8.148438 -18.757812 9.171875 -19.375 C 10.203125 -19.988281 11.457031 -20.296875 12.9375 -20.296875 C 15.332031 -20.296875 17.066406 -19.679688 18.140625 -18.453125 C 19.222656 -17.234375 19.765625 -15.351562 19.765625 -12.8125 L 19.765625 0 L 16.828125 0 L 16.828125 -12.75 C 16.828125 -13.945312 16.671875 -14.910156 16.359375 -15.640625 C 16.054688 -16.367188 15.582031 -16.894531 14.9375 -17.21875 C 14.289062 -17.550781 13.445312 -17.71875 12.40625 -17.71875 C 10.613281 -17.71875 9.164062 -17.125 8.0625 -15.9375 C 6.957031 -14.757812 6.40625 -12.851562 6.40625 -10.21875 L 6.40625 0 Z M 3.46875 0 "/></g></g></g></g></g></svg>