<svg xmlns="http://www.w3.org/2000/svg" xmlns:xlink="http://www.w3.org/1999/xlink" width="1080" zoomAndPan="magnify" viewBox="0 0 810 809.999993" height="1080" preserveAspectRatio="xMidYMid meet" version="1.0"><defs><clipPath id="82a46529df"><path d="M 85.125 81 L 724.875 81 L 724.875 720.75 L 85.125 720.75 Z M 85.125 81 " clip-rule="nonzero"/></clipPath></defs><g clip-path="url(#82a46529df)"><path fill="#000000" d="M 405 81 C 228.617188 81 85.125 224.492188 85.125 400.875 C 85.125 577.257812 228.617188 720.75 405 720.75 C 581.382812 720.75 724.875 577.257812 724.875 400.875 C 724.875 224.492188 581.382812 81 405 81 Z M 405 704.824219 C 237.402344 704.824219 101.050781 568.472656 101.050781 400.875 C 101.050781 233.277344 237.402344 96.925781 405 96.925781 C 572.597656 96.925781 708.949219 233.277344 708.949219 400.875 C 708.949219 568.472656 572.597656 704.824219 405 704.824219 Z M 667.457031 436.046875 C 659.082031 499.105469 628.078125 557.136719 580.148438 599.449219 C 531.78125 642.136719 469.585938 665.640625 405.011719 665.640625 C 363.285156 665.640625 323.34375 656.203125 286.3125 637.609375 C 251.007812 619.875 219.550781 593.929688 195.328125 562.566406 C 192.636719 559.085938 193.285156 554.082031 196.761719 551.390625 C 200.238281 548.707031 205.242188 549.34375 207.9375 552.820312 C 255.480469 614.394531 327.3125 649.714844 405.011719 649.714844 C 529.300781 649.714844 635.351562 556.949219 651.675781 433.949219 C 652.257812 429.585938 656.253906 426.53125 660.621094 427.101562 C 664.976562 427.6875 668.039062 431.679688 667.46875 436.046875 Z M 158.335938 367.800781 C 157.808594 371.808594 154.382812 374.714844 150.453125 374.714844 C 150.109375 374.714844 149.75 374.6875 149.390625 374.648438 C 145.039062 374.0625 141.972656 370.070312 142.542969 365.703125 C 150.917969 302.644531 181.921875 244.613281 229.851562 202.300781 C 278.21875 159.613281 340.414062 136.109375 404.988281 136.109375 C 446.714844 136.109375 486.65625 145.546875 523.683594 164.140625 C 558.992188 181.875 590.449219 207.820312 614.671875 239.183594 C 617.363281 242.664062 616.714844 247.667969 613.238281 250.359375 C 609.761719 253.042969 604.757812 252.40625 602.0625 248.929688 C 554.519531 187.355469 482.6875 152.050781 404.988281 152.050781 C 280.699219 152.050781 174.648438 244.8125 158.324219 367.8125 Z M 405 607.917969 C 409.394531 607.917969 412.964844 604.347656 412.964844 599.953125 L 412.964844 557.320312 C 436.734375 556.046875 458.078125 550.84375 476.5 541.804688 C 522.847656 519.070312 554.570312 469.589844 557.304688 415.753906 C 558.15625 399.148438 556.109375 381.125 551.265625 362.183594 C 550.523438 359.277344 548.199219 357.035156 545.265625 356.382812 C 542.332031 355.734375 539.28125 356.796875 537.382812 359.132812 C 523.128906 376.613281 505.34375 386.234375 488.140625 395.527344 L 484.636719 397.425781 C 464.289062 408.480469 445.707031 423.398438 430.921875 440.585938 C 424.058594 448.550781 418.074219 456.886719 412.964844 465.539062 L 412.964844 447.0625 C 422.28125 441.78125 430.761719 436.273438 438.222656 430.644531 C 468.683594 407.695312 484.941406 381.21875 487.914062 349.667969 C 492.136719 304.898438 469.359375 277.609375 445.242188 248.703125 C 443.625 246.765625 441.992188 244.800781 440.34375 242.820312 L 438.804688 240.964844 C 430.429688 230.902344 418.976562 217.125 412.5 199.089844 C 411.359375 195.929688 408.359375 193.820312 405 193.820312 C 401.640625 193.820312 398.640625 195.929688 397.5 199.089844 C 391.023438 217.125 379.570312 230.902344 371.195312 240.964844 L 369.65625 242.820312 C 368.007812 244.800781 366.375 246.765625 364.757812 248.714844 C 340.640625 277.609375 317.863281 304.914062 322.085938 349.683594 C 325.058594 381.21875 341.316406 407.710938 371.777344 430.644531 C 379.238281 436.273438 387.71875 441.78125 397.035156 447.0625 L 397.035156 465.539062 C 391.925781 456.886719 385.941406 448.550781 379.078125 440.585938 C 364.292969 423.398438 345.710938 408.480469 325.363281 397.425781 L 321.859375 395.527344 C 304.65625 386.234375 286.859375 376.613281 272.617188 359.132812 C 270.71875 356.808594 267.679688 355.746094 264.734375 356.382812 C 261.800781 357.035156 259.476562 359.277344 258.734375 362.183594 C 253.875 381.125 251.84375 399.148438 252.695312 415.753906 C 255.429688 469.589844 287.152344 519.070312 333.5 541.804688 C 351.921875 550.84375 373.277344 556.046875 397.035156 557.320312 L 397.035156 599.953125 C 397.035156 604.347656 400.605469 607.917969 405 607.917969 Z M 442.988281 450.980469 C 456.523438 435.238281 473.554688 421.566406 492.230469 411.425781 L 495.707031 409.542969 C 509.683594 401.988281 525.117188 393.640625 539.003906 380.660156 C 541.140625 392.710938 541.949219 404.191406 541.40625 414.945312 C 538.960938 463.085938 510.730469 507.269531 469.492188 527.511719 C 457.070312 533.601562 443.066406 537.757812 427.683594 539.921875 C 446.09375 503.15625 475.558594 473.996094 508.144531 460.761719 C 512.21875 459.101562 514.183594 454.457031 512.523438 450.382812 C 510.863281 446.308594 506.21875 444.34375 502.144531 446.003906 C 465.191406 461 433.164062 492.65625 412.964844 533.722656 L 412.964844 505.027344 C 418.671875 485.675781 428.773438 467.492188 442.988281 450.964844 Z M 381.359375 417.929688 C 354.683594 397.835938 340.480469 375.019531 337.945312 348.183594 C 334.347656 310.023438 353.167969 287.472656 376.996094 258.921875 C 378.625 256.972656 380.273438 254.992188 381.933594 252.988281 L 383.457031 251.15625 C 389.617188 243.765625 398.003906 233.664062 405.011719 220.960938 C 412.019531 233.664062 420.410156 243.765625 426.566406 251.15625 L 428.09375 252.988281 C 429.753906 254.980469 431.398438 256.957031 433.03125 258.921875 C 456.855469 287.472656 475.679688 310.023438 472.082031 348.183594 C 469.546875 375.019531 455.34375 397.824219 428.664062 417.929688 C 423.902344 421.527344 418.644531 425.085938 412.992188 428.5625 L 412.992188 392.445312 C 426.105469 383.648438 436.960938 370.46875 443.144531 355.65625 C 444.84375 351.59375 442.921875 346.933594 438.859375 345.234375 C 434.796875 343.535156 430.140625 345.460938 428.441406 349.523438 C 424.976562 357.804688 419.535156 365.636719 412.988281 371.992188 L 412.988281 328.433594 C 423.570312 321.132812 432.316406 310.394531 437.347656 298.355469 C 439.042969 294.292969 437.121094 289.636719 433.058594 287.9375 C 428.996094 286.238281 424.339844 288.164062 422.640625 292.222656 C 420.371094 297.664062 417.023438 302.855469 412.988281 307.328125 L 412.988281 284.234375 C 412.988281 279.839844 409.417969 276.269531 405.027344 276.269531 C 400.632812 276.269531 397.0625 279.839844 397.0625 284.234375 L 397.0625 307.328125 C 393.027344 302.84375 389.683594 297.664062 387.414062 292.222656 C 385.714844 288.164062 381.054688 286.25 376.996094 287.9375 C 372.933594 289.636719 371.023438 294.292969 372.707031 298.355469 C 377.738281 310.40625 386.472656 321.144531 397.0625 328.433594 L 397.0625 371.992188 C 390.519531 365.636719 385.0625 357.804688 381.613281 349.523438 C 379.914062 345.460938 375.253906 343.535156 371.195312 345.234375 C 367.132812 346.933594 365.222656 351.59375 366.90625 355.65625 C 373.09375 370.480469 383.949219 383.660156 397.0625 392.445312 L 397.0625 428.5625 C 391.410156 425.085938 386.152344 421.527344 381.386719 417.929688 Z M 268.59375 414.945312 C 268.050781 404.191406 268.859375 392.710938 270.996094 380.660156 C 284.882812 393.640625 300.316406 401.988281 314.292969 409.542969 L 317.769531 411.425781 C 336.445312 421.566406 353.476562 435.25 367.011719 450.980469 C 381.226562 467.503906 391.328125 485.6875 397.035156 505.039062 L 397.035156 533.734375 C 376.835938 492.667969 344.792969 461.015625 307.855469 446.015625 C 303.78125 444.355469 299.136719 446.320312 297.476562 450.394531 C 295.816406 454.46875 297.78125 459.117188 301.855469 460.773438 C 334.441406 474.007812 363.90625 503.167969 382.316406 539.933594 C 366.933594 537.757812 352.929688 533.617188 340.507812 527.523438 C 299.269531 507.296875 271.039062 463.109375 268.59375 414.957031 Z M 268.59375 414.945312 " fill-opacity="1" fill-rule="nonzero"/></g></svg>