<svg xmlns="http://www.w3.org/2000/svg" xmlns:xlink="http://www.w3.org/1999/xlink" width="100" zoomAndPan="magnify" viewBox="0 0 75 74.999997" height="100" preserveAspectRatio="xMidYMid meet" version="1.0"><defs><clipPath id="7b01c3531c"><path d="M 18 9 L 61 9 L 61 70.136719 L 18 70.136719 Z M 18 9 " clip-rule="nonzero"/></clipPath><clipPath id="d8ad9779cb"><path d="M 12.589844 4.886719 L 39 4.886719 L 39 61 L 12.589844 61 Z M 12.589844 4.886719 " clip-rule="nonzero"/></clipPath></defs><g clip-path="url(#7b01c3531c)"><path fill="#652672" d="M 40.710938 9.507812 L 38.820312 11.945312 L 38.789062 66.765625 C 38.789062 66.9375 38.648438 67.089844 38.472656 67.089844 L 22.496094 67.140625 C 22.496094 67.140625 21.949219 66.765625 21.949219 66 C 21.949219 65.230469 21.894531 64.542969 21.894531 64.535156 L 18.625 64.453125 C 18.625 64.453125 17.863281 69.597656 21.695312 70.117188 L 52.097656 70.117188 C 52.136719 70.117188 52.195312 70.101562 52.230469 70.097656 C 52.726562 70.019531 53.277344 69.796875 53.890625 69.125 C 54.722656 68.222656 54.804688 67.46875 54.839844 66.746094 C 54.828125 64.519531 54.664062 62.257812 54.730469 59.90625 C 54.738281 59.65625 54.894531 59.320312 55.078125 59.15625 L 55.183594 59.066406 C 55.191406 59.058594 55.195312 59.050781 55.203125 59.050781 C 55.449219 58.871094 59.171875 56.109375 60.558594 50.046875 C 62.089844 43.355469 58.511719 37.179688 56.976562 34.605469 C 50.480469 23.703125 45.730469 16.335938 45.730469 16.335938 L 45.730469 60.347656 L 49.050781 60.347656 L 49.050781 27.65625 C 49.050781 27.65625 51.859375 31.515625 55.953125 39.496094 C 56.191406 39.949219 58.761719 44.898438 56.976562 50.5625 C 56.09375 53.363281 52.882812 56.742188 52.882812 56.742188 C 52.882812 56.742188 51.859375 57.511719 51.859375 59.058594 L 51.859375 65.746094 C 51.859375 65.757812 52.113281 67.027344 50.839844 67.027344 L 42.148438 67.027344 L 42.148438 11.863281 Z M 40.710938 9.507812 " fill-opacity="1" fill-rule="nonzero"/></g><path fill="#652672" d="M 31.15625 60.535156 L 34.542969 60.535156 L 34.542969 19 L 31.15625 24 Z M 31.15625 60.535156 " fill-opacity="1" fill-rule="nonzero"/><g clip-path="url(#d8ad9779cb)"><path fill="#652672" d="M 38.464844 6.320312 C 34.890625 11.699219 31.3125 17.082031 27.738281 22.464844 L 27.738281 60.445312 C 25.246094 60.496094 22.761719 60.542969 20.273438 60.59375 C 19.863281 60.421875 19.324219 60.160156 18.730469 59.789062 C 18.542969 59.667969 17.648438 59.09375 16.648438 58.085938 C 15.699219 57.125 15.132812 56.25 14.980469 55.996094 C 14.511719 55.25 14.273438 54.683594 13.875 53.722656 C 13.230469 52.167969 13.015625 51.167969 12.941406 50.808594 C 12.746094 49.839844 12.710938 49.125 12.664062 48.21875 C 12.589844 46.636719 12.679688 45.464844 12.695312 45.203125 C 12.71875 44.949219 12.820312 43.710938 13.132812 42.265625 C 13.6875 39.71875 14.609375 37.785156 15.394531 36.152344 C 16.519531 33.824219 17.574219 32.171875 18.765625 30.324219 C 19.886719 28.582031 20.894531 27.179688 21.613281 26.203125 C 21.613281 28.144531 21.621094 30.089844 21.621094 32.03125 C 21.007812 32.875 20.28125 33.949219 19.558594 35.261719 C 19.277344 35.769531 18.53125 37.160156 17.730469 39.203125 C 16.640625 42.003906 16.023438 43.59375 15.867188 45.875 C 15.800781 46.875 15.683594 48.980469 16.566406 51.4375 C 17.097656 52.914062 17.773438 53.921875 18.003906 54.242188 C 19.050781 55.730469 20.242188 56.652344 21.027344 57.175781 L 24.550781 57.175781 C 24.527344 45.324219 24.503906 33.480469 24.484375 21.628906 C 30.355469 12.582031 34.691406 5.984375 35.136719 5.46875 C 35.460938 5.082031 35.839844 5.007812 35.839844 5.007812 C 36.09375 4.910156 36.34375 4.984375 36.558594 5.042969 C 36.839844 5.125 37.035156 5.265625 37.417969 5.527344 C 37.664062 5.699219 38.058594 5.96875 38.464844 6.320312 Z M 38.464844 6.320312 " fill-opacity="1" fill-rule="nonzero"/></g></svg>